<?xml version="1.0" standalone="no"?><!DOCTYPE svg PUBLIC "-//W3C//DTD SVG 1.1//EN" "http://www.w3.org/Graphics/SVG/1.1/DTD/svg11.dtd"><svg t="1690363998747" class="icon" viewBox="0 0 1024 1024" version="1.1" xmlns="http://www.w3.org/2000/svg" p-id="12997" xmlns:xlink="http://www.w3.org/1999/xlink" width="200" height="200"><path d="M102.4 102.4m307.2 0l204.8 0q307.2 0 307.2 307.2l0 204.8q0 307.2-307.2 307.2l-204.8 0q-307.2 0-307.2-307.2l0-204.8q0-307.2 307.2-307.2Z" fill="#50CCCC" p-id="12998"></path><path d="M638.58688 281.6c38.5024 0 77.02016 14.97088 115.5584 44.91264A35.84 35.84 0 0 1 768 354.816v327.90528a35.84 35.84 0 0 1-51.328 32.32256c-26.04544-12.48256-51.88096-18.72384-77.5168-18.72384-42.39872 0-84.7872 8.53504-127.1552 25.6l-4.23936-1.67936c-40.96-15.9488-81.93024-23.92064-122.91072-23.92064-25.64096 0-51.47648 6.24128-77.5168 18.72384a35.84 35.84 0 0 1-51.31264-31.08864l-0.02048-1.2288V354.816a35.84 35.84 0 0 1 13.8496-28.30336C308.39296 296.57088 346.91072 281.6 385.408 281.6c41.84576 0 82.82624 9.64608 122.94656 28.93824L512 312.32c41.28256-20.48 83.47648-30.72 126.58688-30.72zM512 348.16a10.24 10.24 0 0 0-10.24 10.24v286.72a10.24 10.24 0 0 0 20.48 0V358.4a10.24 10.24 0 0 0-10.24-10.24z" fill="#FFFFFF" p-id="12999" data-spm-anchor-id="a313x.7781069.0.i0" class="selected"></path></svg>